<svg xmlns="http://www.w3.org/2000/svg" width="646" height="433" viewBox="0 0 646 433" version="1.1"><path d="M 596.147 2.965 C 591.494 5.134, 559.502 27.465, 554.500 32.035 C 552.850 33.543, 550.150 35.456, 548.500 36.286 C 546.850 37.117, 544.112 39.305, 542.416 41.148 C 540.720 42.992, 531.720 51.312, 522.416 59.638 C 513.112 67.964, 502.982 77.197, 499.903 80.154 C 492.035 87.715, 485.795 90.575, 449 103.483 C 443.775 105.316, 434.100 108.230, 427.500 109.958 C 417.162 112.665, 413.843 113.093, 403.541 113.047 C 396.963 113.018, 388.413 112.344, 384.541 111.548 C 380.668 110.752, 375.925 109.834, 374 109.507 C 368.403 108.556, 363.345 107.162, 349.619 102.786 C 336.994 98.760, 336.586 98.538, 329.085 91.589 C 324.876 87.690, 319.876 82.475, 317.974 80 C 312.552 72.945, 291.904 52.596, 287.075 49.547 C 277.751 43.661, 242.684 30, 236.899 30 C 229.528 30, 225.058 31.926, 223.440 35.798 C 222.648 37.694, 222 40.132, 222 41.218 C 222 42.303, 221.159 44.386, 220.131 45.846 C 219.103 47.306, 217.926 49.625, 217.515 51 C 217.104 52.375, 215.684 54.947, 214.359 56.715 C 209.648 63.005, 198.989 85.553, 197.609 92.148 C 196.858 95.739, 195.750 99.600, 195.146 100.727 C 194.514 101.909, 193.850 110.925, 193.578 122.028 C 193.288 133.890, 192.485 144.393, 191.487 149.390 C 188.050 166.588, 185.909 176.650, 184.887 180.409 C 183.362 186.020, 179.524 191.649, 175.088 194.783 C 172.838 196.373, 170.727 198.952, 169.999 201 C 169.314 202.925, 168.039 205.316, 167.164 206.314 C 164.832 208.975, 161.112 224.515, 161.052 231.846 C 160.978 240.860, 158.555 248.365, 154.421 252.380 C 152.539 254.207, 151 256.643, 151 257.792 C 151 258.941, 150.504 260.188, 149.898 260.563 C 149.292 260.938, 148.160 262.652, 147.383 264.372 C 145.864 267.735, 144.608 269.944, 141.790 274.210 C 140.806 275.700, 139.997 277.950, 139.993 279.210 C 139.985 282.294, 137.924 285.107, 128.578 294.791 C 124.205 299.323, 119.818 303, 118.785 303 C 116.655 303, 107.354 311.308, 106.512 313.964 C 106.065 315.371, 104.422 315.822, 98.204 316.249 C 93.266 316.587, 89.191 317.480, 86.976 318.709 C 85.064 319.770, 81.250 321.236, 78.500 321.967 C 75.750 322.697, 73.072 323.679, 72.550 324.147 C 72.027 324.616, 70.762 325, 69.737 325 C 65.432 325, 54.468 329.659, 50.911 333 C 48.861 334.925, 44.780 337.745, 41.842 339.266 C 36.591 341.984, 36.198 342.031, 18.750 342.016 L 1 342 1 345.500 L 1 349 19.858 349 L 38.716 349 45.608 345.426 C 49.399 343.460, 53.850 340.574, 55.500 339.012 C 57.203 337.400, 61.527 335.200, 65.500 333.924 C 69.350 332.688, 73.400 331.330, 74.500 330.908 C 75.600 330.485, 78.862 329.573, 81.750 328.881 C 84.638 328.188, 87 327.257, 87 326.811 C 87 326.365, 87.810 326, 88.800 326 C 89.790 326, 91.136 325.464, 91.792 324.808 C 92.461 324.139, 96.924 323.428, 101.983 323.186 C 110.417 322.783, 111.098 322.900, 112.835 325.045 C 114.956 327.664, 117.883 327.165, 118.698 324.046 C 119.091 322.542, 120.238 322.033, 123.751 321.801 C 129.049 321.450, 131.251 319.213, 128.986 316.483 C 127.860 315.127, 126.265 314.872, 120.816 315.180 L 114.045 315.563 116.606 312.890 C 118.014 311.420, 120.367 309.964, 121.833 309.654 C 123.364 309.332, 128.365 305.306, 133.569 300.208 C 142.557 291.402, 146.067 286.824, 147.530 282 C 147.947 280.625, 150.023 276.642, 152.144 273.148 C 154.265 269.654, 156 266.630, 156 266.427 C 156 266.224, 158.076 262.557, 160.612 258.279 C 166.266 248.743, 167.960 243.436, 168.041 235 C 168.108 228.094, 171.669 212.439, 173.735 209.974 C 177.867 205.042, 179.968 202.024, 181.849 198.318 C 183.016 196.018, 184.470 193.827, 185.080 193.450 C 187.071 192.220, 191.626 180.696, 193.755 171.500 C 198.135 152.589, 199 146.664, 199 135.597 C 199 127.901, 199.498 122.844, 200.549 119.876 C 201.402 117.469, 202.262 113.025, 202.461 110 C 202.825 104.484, 203.188 102.354, 205.192 94 C 206.270 89.507, 212.603 75.956, 218.043 66.500 C 219.625 63.750, 222.092 59.146, 223.524 56.269 C 228.864 45.546, 229.665 47.131, 230.966 71 C 231.991 89.778, 232.996 93.388, 238.622 98.484 C 240.766 100.425, 242 106.346, 242 114.689 C 242 124.221, 243.339 127.687, 249.785 134.831 C 251.934 137.213, 255.449 142.602, 257.596 146.807 C 261.050 153.571, 263.979 156.918, 283 175.837 C 294.825 187.599, 306.075 198.409, 308 199.861 C 309.925 201.312, 311.950 203.010, 312.500 203.634 C 314.485 205.885, 322.334 211, 323.803 211 C 324.629 211, 327.832 213.588, 330.921 216.750 C 334.009 219.912, 338.778 224.289, 341.518 226.476 C 344.258 228.663, 352.146 236.088, 359.048 242.976 C 365.949 249.864, 373.784 256.850, 376.459 258.500 C 389.594 266.603, 398.970 271.271, 405.889 273.153 C 410.075 274.292, 413.950 275.582, 414.500 276.020 C 415.050 276.458, 418.200 277.797, 421.500 278.995 C 427.016 280.999, 429.215 281.163, 448.750 281.033 L 470 280.891 470 289.311 C 470 295.935, 470.390 298.239, 471.830 300.115 C 472.837 301.427, 474.525 304.685, 475.580 307.355 C 478.245 314.094, 482.646 317, 490.187 317 C 494.872 317, 496.338 317.429, 498.277 319.368 L 500.644 321.735 534.072 321.866 C 569.113 322.002, 591.110 323.286, 597 325.539 C 598.925 326.275, 602.300 327.409, 604.500 328.059 C 606.700 328.708, 609.978 329.861, 611.784 330.620 C 613.590 331.379, 616.573 332, 618.412 332 C 620.251 332, 623.360 332.670, 625.321 333.490 C 627.283 334.309, 632.737 335.276, 637.444 335.637 L 646 336.295 646 332.777 L 646 329.258 639.750 328.567 C 636.313 328.186, 631.572 327.228, 629.215 326.438 C 626.858 325.647, 623.386 325, 621.499 325 C 619.612 325, 616.590 324.377, 614.784 323.616 C 598.639 316.811, 592.687 316.048, 548.500 315.119 C 516.480 314.446, 512.904 314.197, 506.503 312.192 C 502.353 310.892, 496.860 309.994, 493.003 309.985 C 489.426 309.976, 486.038 309.639, 485.472 309.235 C 484.907 308.831, 483.578 306.475, 482.518 304 C 481.458 301.525, 479.783 298.427, 478.795 297.115 C 477.474 295.360, 477 292.917, 477 287.865 C 477 281.037, 477.015 281, 479.759 281 C 481.436 281, 483.009 281.785, 483.768 283 C 485.431 285.663, 488.435 285.525, 492.317 282.607 C 494.068 281.291, 497.387 279.906, 499.692 279.529 C 501.998 279.152, 504.392 278.233, 505.012 277.486 C 505.631 276.739, 507.505 275.828, 509.177 275.461 C 510.848 275.094, 513.708 273.828, 515.533 272.647 C 526.561 265.511, 530.991 263.055, 535.006 261.851 C 537.484 261.108, 540.448 259.825, 541.592 259 C 544.007 257.258, 551.459 246.493, 552.409 243.374 C 553.036 241.313, 561.123 232.943, 567.750 227.494 C 569.538 226.025, 571 224.354, 571 223.782 C 571 223.210, 573.400 220.436, 576.333 217.618 L 581.666 212.494 582.332 201.600 C 582.699 195.608, 583.399 190.210, 583.888 189.603 C 584.377 188.996, 585.103 185.633, 585.501 182.129 C 586.301 175.085, 588.213 171.626, 595.258 164.480 C 599.089 160.595, 602 154.853, 602 151.184 C 602 150.588, 603.350 148.100, 605 145.655 C 606.650 143.210, 608 140.801, 608 140.301 C 608 139.801, 609.575 137.866, 611.500 136 C 614.003 133.574, 615 131.733, 615 129.539 C 615 125.804, 617.946 120.021, 622.916 114 C 625.902 110.382, 626.878 108.094, 627.892 102.327 C 628.680 97.848, 629.707 94.943, 630.627 94.590 C 631.437 94.279, 633.261 91.488, 634.680 88.388 C 636.981 83.362, 637.343 80.946, 638.020 66.125 C 638.437 56.981, 639.353 46.412, 640.056 42.637 C 641.170 36.650, 641.130 35.373, 639.744 32.637 C 638.325 29.836, 637.221 25.412, 636.466 19.500 C 634.919 7.388, 627.347 2.398, 609 1.399 C 601.909 1.013, 599.779 1.273, 596.147 2.965 M 599.789 10.729 C 598.182 11.406, 593.410 14.418, 589.184 17.424 C 584.958 20.430, 579.067 24.602, 576.093 26.695 C 573.119 28.788, 566.907 33.538, 562.288 37.250 C 557.670 40.963, 553.438 44, 552.884 44 C 551.826 44, 543.579 51.577, 528.665 66.250 C 523.773 71.063, 519.247 75, 518.606 75 C 517.542 75, 502 89.576, 502 90.573 C 502 90.809, 504.868 92.358, 508.374 94.014 C 519.267 99.161, 526.569 106.843, 527.491 114.127 C 527.701 115.786, 528.155 118.428, 528.500 119.998 C 529.017 122.355, 528.476 123.574, 525.401 126.978 C 522.172 130.552, 521.198 131.061, 518.088 130.801 C 515.046 130.546, 514.453 130.098, 514.194 127.858 C 513.962 125.854, 514.637 124.683, 516.990 123.007 C 519.707 121.072, 520.023 120.368, 519.539 117.320 C 518.427 110.326, 514.925 106.906, 502.384 100.565 L 493.269 95.956 488.384 98.062 C 485.698 99.220, 477.200 102.409, 469.500 105.148 C 461.800 107.887, 452.460 111.264, 448.745 112.653 C 445.031 114.042, 441.431 115.278, 440.745 115.400 C 440.060 115.522, 438.600 115.915, 437.500 116.272 C 436.400 116.629, 434.375 117.129, 433 117.382 C 431.625 117.635, 427.492 118.786, 423.816 119.941 C 418.197 121.705, 414.931 122.008, 403.316 121.842 C 395.717 121.734, 388.150 121.231, 386.500 120.726 C 383.259 119.732, 382.977 119.676, 375.500 118.551 C 372.750 118.138, 368.544 117.160, 366.154 116.379 C 363.764 115.598, 360.277 114.715, 358.405 114.418 C 356.533 114.120, 350.753 112.378, 345.560 110.546 C 340.367 108.714, 335.910 107.423, 335.656 107.677 C 334.925 108.409, 327 104.072, 327 102.941 C 327 101.649, 310.999 84.174, 295.854 68.923 C 285.658 58.657, 283.167 56.705, 275.854 53.246 C 265.439 48.320, 262.879 47.256, 256 44.990 C 252.975 43.994, 247.872 42.066, 244.661 40.706 C 235.595 36.867, 233.597 38.599, 236.953 47.389 C 237.560 48.977, 237.836 50.497, 237.568 50.766 C 237.299 51.034, 237.731 52.813, 238.526 54.717 C 239.542 57.147, 239.679 58.731, 238.987 60.025 C 237.489 62.823, 237.807 78.163, 239.497 84.651 C 240.391 88.084, 242.150 91.628, 243.863 93.450 C 247.821 97.658, 248.997 101.869, 249.016 111.899 C 249.035 121.345, 249.966 123.671, 257.139 132.182 C 259.140 134.557, 262.573 139.875, 264.767 144 C 268.174 150.406, 271.765 154.484, 289.389 171.958 C 300.738 183.210, 311.980 193.634, 314.372 195.123 C 316.764 196.612, 319.003 198.566, 319.349 199.466 C 319.694 200.366, 322.119 202.044, 324.738 203.195 C 329.717 205.384, 339.094 213.597, 361.483 235.383 C 368.765 242.468, 375.572 248.717, 376.611 249.269 C 377.650 249.821, 379.400 251.069, 380.500 252.043 C 385.319 256.306, 400.793 264.143, 408.406 266.175 C 412.858 267.364, 417.175 268.850, 418 269.478 C 418.825 270.106, 421.975 271.347, 425 272.236 C 429.413 273.532, 435.735 273.869, 457 273.940 C 481.477 274.022, 483.614 274.170, 484.996 275.872 C 486.442 277.654, 486.607 277.642, 489.996 275.510 C 491.923 274.298, 495.142 273, 497.150 272.626 C 499.157 272.253, 501.325 271.313, 501.969 270.538 C 502.612 269.763, 504.570 268.820, 506.319 268.443 C 510.002 267.649, 516.658 263.989, 522.769 259.398 C 525.117 257.634, 529.256 255.658, 531.967 255.008 C 537.545 253.670, 539.752 251.325, 545.163 240.985 C 547.672 236.190, 550.422 232.982, 556.247 228.054 C 560.508 224.449, 563.996 221.037, 563.997 220.471 C 563.999 219.905, 566.401 217.182, 569.336 214.419 L 574.672 209.396 575.335 198.551 C 575.700 192.587, 576.399 187.210, 576.888 186.603 C 577.377 185.996, 578.103 182.636, 578.500 179.135 C 579.299 172.097, 582.002 167.256, 588.822 160.645 C 591.422 158.125, 593.245 155.182, 594.087 152.145 C 594.796 149.590, 596.642 145.343, 598.188 142.706 C 599.735 140.069, 601 137.570, 601 137.152 C 601 136.734, 602.575 134.866, 604.500 133 C 607.003 130.574, 608 128.733, 608 126.539 C 608 122.746, 610.977 116.970, 616.101 110.821 C 618.245 108.247, 620 105.165, 620 103.972 C 620 102.779, 620.718 100.289, 621.596 98.439 C 622.474 96.589, 622.980 94.496, 622.721 93.788 C 622.462 93.080, 623.092 91.100, 624.121 89.389 C 625.150 87.677, 626.244 83.852, 626.552 80.889 C 626.859 77.925, 627.369 74.625, 627.685 73.556 C 628 72.486, 628.411 69.111, 628.597 66.056 C 628.783 63, 629.229 57.350, 629.589 53.500 C 630.571 42.978, 630.587 36, 629.642 31 C 629.174 28.525, 628.610 24.753, 628.387 22.618 C 627.682 15.849, 626.018 13.680, 619.989 11.673 C 613.407 9.482, 603.817 9.034, 599.789 10.729 M 588.500 50.707 C 587.400 50.968, 583.350 52.222, 579.500 53.493 C 575.650 54.764, 568.980 56.040, 564.679 56.330 C 550.976 57.252, 543 63.235, 543 72.589 C 543 74.950, 543.479 77.178, 544.065 77.540 C 544.760 77.969, 544.513 78.880, 543.357 80.158 C 542.016 81.640, 541.841 82.524, 542.637 83.787 C 544.079 86.072, 548.358 86.926, 563.063 87.865 C 571.288 88.389, 576.640 89.214, 578.563 90.252 C 584.274 93.337, 590.216 95.044, 597.338 95.646 C 603.276 96.148, 604.781 95.969, 605.892 94.630 C 606.695 93.663, 607.575 88.656, 608.069 82.253 C 609.408 64.887, 609.309 63.520, 606.459 60.133 L 603.917 57.113 608.606 56.806 C 613.965 56.456, 616.278 54.245, 614.070 51.584 C 613.003 50.298, 610.660 50.022, 601.628 50.116 C 595.507 50.180, 589.600 50.446, 588.500 50.707 M 560 64.202 C 553.048 65.728, 548.905 70.274, 551.167 73.896 C 552.120 75.422, 552.115 76.157, 551.141 77.330 C 549.177 79.697, 551.165 80.247, 564.067 80.902 C 572.751 81.343, 575.587 81.204, 574.894 80.371 C 574.378 79.750, 573.674 75.588, 573.330 71.121 L 572.704 63 568.602 63.107 C 566.346 63.166, 562.475 63.659, 560 64.202 M 600.175 78.095 C 599.889 82.344, 597.222 83.865, 589.477 84.199 L 582.500 84.500 588 86.188 C 598.398 89.380, 599.850 89.444, 600.529 86.741 C 600.860 85.420, 600.956 82.351, 600.741 79.920 C 600.525 77.489, 600.271 76.668, 600.175 78.095 M 533.667 98.667 C 532.579 99.755, 532.902 102.646, 534.449 105.669 C 535.246 107.226, 536.120 109.258, 536.392 110.185 C 536.664 111.111, 537.802 112.359, 538.921 112.958 C 540.566 113.838, 541.350 113.650, 543.028 111.972 C 544.325 110.675, 544.880 109.197, 544.509 108.029 C 544.183 107.001, 543.724 105.162, 543.489 103.943 C 542.845 100.600, 540.012 98, 537.012 98 C 535.539 98, 534.033 98.300, 533.667 98.667 M 467.969 113.430 C 456.561 116.580, 454.205 120.037, 458.190 127.780 C 461.098 133.431, 465.895 136.662, 468.949 135.027 C 471.727 133.540, 471.532 130.222, 468.500 127.412 C 467.125 126.138, 466 124.654, 466 124.115 C 466 123.191, 468.730 121.930, 471.941 121.372 C 478.470 120.236, 480.951 117.645, 479 114 C 477.768 111.698, 474.796 111.545, 467.969 113.430 M 305.500 114 C 305.160 114.550, 302.939 115, 300.563 115 C 295.902 115, 293.359 116.888, 294.393 119.582 C 294.732 120.466, 295.908 121.425, 297.005 121.712 C 299.504 122.365, 299.481 122.617, 296.474 127.500 C 292.879 133.336, 293.099 138.945, 297.077 142.923 C 298.769 144.615, 300.560 146, 301.057 146 C 301.553 146, 304.422 148.583, 307.432 151.740 L 312.904 157.481 320.702 157.826 C 324.991 158.016, 340.359 157.710, 354.854 157.147 C 385.316 155.962, 385.408 155.934, 384.831 147.968 C 384.546 144.033, 384.762 143.399, 386.369 143.446 C 387.397 143.476, 388.728 142.739, 389.327 141.809 C 391.182 138.927, 388.483 136.803, 375.500 130.931 C 372.750 129.687, 369.306 127.844, 367.846 126.835 C 366.386 125.826, 364.303 125, 363.218 125 C 362.133 125, 360.685 124.325, 360 123.500 C 359.315 122.675, 358.313 122, 357.773 122 C 357.232 122, 354.700 120.538, 352.145 118.751 L 347.500 115.503 329 115.179 C 318.825 115.002, 310.072 114.439, 309.550 113.928 C 308.302 112.709, 306.276 112.745, 305.500 114 M 306.234 125.750 C 305.280 127.813, 303.967 130.065, 303.316 130.756 C 300.382 133.867, 300.624 136.343, 304.116 138.927 C 305.977 140.305, 309.434 143.446, 311.797 145.906 C 315.825 150.099, 316.484 150.406, 322.297 150.804 L 328.500 151.229 325.600 148.153 C 322.787 145.169, 322.719 144.856, 323.327 137.666 C 324.087 128.670, 325.381 124.975, 328.012 124.287 C 332.976 122.989, 329.072 122, 318.984 122 L 307.968 122 306.234 125.750 M 558.821 126.263 C 555.076 129.843, 546.627 133, 540.792 133 C 539.515 133, 536.844 133.872, 534.856 134.937 C 529.816 137.639, 519.855 140.125, 518.518 139.015 C 517.852 138.463, 511.474 139.616, 501.976 142.006 C 488.743 145.336, 485.437 145.825, 479.009 145.403 C 474.879 145.133, 465.577 144.843, 458.339 144.759 C 445.179 144.608, 442 145.317, 442 148.403 C 442 149.040, 440.651 150.071, 439.002 150.693 C 435.348 152.072, 434.586 153.781, 435.985 157.460 C 437.012 160.161, 437.122 160.199, 438.988 158.511 C 441.223 156.488, 443.963 157.143, 444.677 159.871 C 445.172 161.764, 450.742 164, 454.965 164 C 456.193 164, 458.391 165.263, 459.849 166.807 C 461.307 168.352, 464.652 170.648, 467.281 171.912 C 471.703 174.036, 472.944 174.165, 483.781 173.623 C 508.928 172.367, 527.410 168.670, 537.005 162.976 C 540.027 161.182, 544.525 158.754, 547 157.579 C 555.822 153.393, 568.705 145.983, 570.382 144.131 C 571.319 143.095, 572.332 140.730, 572.633 138.874 C 573.287 134.843, 570.795 131.158, 564.895 127.434 C 560.404 124.599, 560.536 124.624, 558.821 126.263 M 368 140.047 C 368 142.169, 367.477 145.054, 366.838 146.457 C 366.198 147.860, 365.910 149.243, 366.196 149.530 C 366.483 149.816, 369.256 149.752, 372.359 149.388 C 377.337 148.803, 378 148.462, 378 146.485 C 378 145.253, 378.670 143.689, 379.489 143.009 C 381.441 141.389, 380.496 140, 377.441 140 C 376.098 140, 375 139.626, 375 139.168 C 375 138.710, 373.425 137.852, 371.500 137.261 L 368 136.187 368 140.047 M 423.708 139.435 C 422.921 140.222, 421.970 142.788, 421.594 145.137 C 421.219 147.486, 420.026 150.840, 418.944 152.591 C 416.246 156.955, 418.254 160.991, 422.342 159.422 C 424.731 158.506, 428.134 151.104, 428.703 145.586 C 429.191 140.865, 429.007 140.074, 427.199 139.106 C 425.611 138.257, 424.811 138.332, 423.708 139.435 M 246.566 153.894 C 246.224 154.447, 246.923 157.734, 248.118 161.199 C 250.816 169.017, 251.439 179.527, 250.215 196.542 C 249.274 209.613, 248.650 211.788, 244.250 217.323 C 240.071 222.580, 242.373 226.073, 246.910 221.358 C 251.926 216.146, 253.136 212.340, 254.179 198.500 C 255.479 181.265, 254.693 166.053, 252.138 159 C 250.252 153.793, 247.938 151.672, 246.566 153.894 M 339.091 204.830 C 337.983 206.901, 339.679 210.928, 343.316 214.861 C 348.315 220.266, 374.834 237.617, 381 239.517 C 382.375 239.941, 391.290 244.097, 400.810 248.753 C 424.029 260.108, 432.467 262.122, 463.249 263.660 C 475.626 264.278, 478 263.679, 478 259.937 C 478 257.012, 476.221 256.538, 462.500 255.807 C 440.501 254.634, 429.095 253.015, 420.500 249.846 C 417.695 248.812, 397.327 239.112, 378.078 229.643 C 367.277 224.329, 350.733 212.391, 346.845 207.105 C 343.615 202.712, 340.684 201.853, 339.091 204.830 M 244.203 269.457 C 241.840 270.205, 238.397 271.533, 236.552 272.408 C 234.707 273.284, 232.396 274, 231.415 274 C 228.210 274, 216.800 286.980, 212.824 295.150 C 210.802 299.304, 206.641 305.583, 203.578 309.102 C 198.319 315.142, 197.720 315.528, 192.855 316 C 187.046 316.564, 184.690 318.717, 186.930 321.416 C 187.875 322.554, 190.016 323, 194.538 323 C 200.359 323, 201.055 322.756, 203.815 319.750 C 205.456 317.962, 208.606 314.555, 210.815 312.177 C 213.024 309.799, 216.107 305.299, 217.666 302.177 C 219.225 299.055, 220.777 296.275, 221.115 296 C 221.454 295.725, 222.038 294.515, 222.414 293.310 C 223.217 290.734, 232.634 281.003, 234.332 280.994 C 234.974 280.990, 236.715 280.354, 238.199 279.580 C 239.683 278.805, 243.337 277.463, 246.318 276.596 C 252.617 274.765, 254.907 272.667, 253.340 270.166 C 251.973 267.985, 249.467 267.791, 244.203 269.457 M 405.357 290.513 C 405.037 291.345, 405.215 292.582, 405.751 293.263 C 406.286 293.943, 407.540 297.200, 408.536 300.500 C 410.877 308.255, 418.316 316.207, 424.877 317.970 C 427.881 318.777, 429.578 318.822, 430.285 318.115 C 431.793 316.607, 429.580 314.366, 425.844 313.619 C 420.910 312.632, 414.679 305.547, 412.547 298.500 C 410.086 290.363, 406.810 286.725, 405.357 290.513 M 308 351.808 C 306.016 353.435, 305.754 354.116, 306.730 355.109 C 307.714 356.110, 308.454 356.095, 310.431 355.037 C 312.198 354.091, 314.820 353.910, 319.624 354.402 C 326.293 355.086, 330.187 356.652, 334.782 360.500 C 336.095 361.600, 337.694 362.543, 338.335 362.597 C 342.679 362.957, 347 366.525, 347 369.751 C 347 371.093, 347.939 373.510, 349.087 375.122 L 351.174 378.052 365.749 377.776 L 380.324 377.500 381.412 374.500 C 383.095 369.861, 387.717 363.232, 390.575 361.359 C 392.458 360.125, 396.318 359.509, 404.828 359.084 C 414.277 358.611, 416.500 358.214, 416.500 357 C 416.500 355.746, 414.438 355.501, 403.914 355.506 C 391.743 355.512, 391.209 355.603, 387.739 358.250 C 384.042 361.070, 378.702 368.212, 377.530 371.906 C 376.906 373.872, 376.160 374, 365.293 374 C 352.660 374, 351.099 373.336, 351.032 367.937 C 350.989 364.495, 345.972 359.726, 342.858 360.166 C 341.255 360.393, 339.754 359.623, 338.171 357.762 C 334.584 353.545, 327.585 350.885, 318.500 350.286 C 311.453 349.822, 310.202 350.003, 308 351.808" stroke="none" fill="#080808" fill-rule="evenodd"/><path d="M 599.789 10.729 C 598.182 11.406, 593.410 14.418, 589.184 17.424 C 584.958 20.430, 579.067 24.602, 576.093 26.695 C 573.119 28.788, 566.907 33.538, 562.288 37.250 C 557.670 40.963, 553.438 44, 552.884 44 C 551.826 44, 543.579 51.577, 528.665 66.250 C 523.773 71.063, 519.247 75, 518.606 75 C 517.542 75, 502 89.576, 502 90.573 C 502 90.809, 504.868 92.358, 508.374 94.014 C 519.267 99.161, 526.569 106.843, 527.491 114.127 C 527.701 115.786, 528.155 118.428, 528.500 119.998 C 529.017 122.355, 528.476 123.574, 525.401 126.978 C 522.172 130.552, 521.198 131.061, 518.088 130.801 C 515.046 130.546, 514.453 130.098, 514.194 127.858 C 513.962 125.854, 514.637 124.683, 516.990 123.007 C 519.707 121.072, 520.023 120.368, 519.539 117.320 C 518.427 110.326, 514.925 106.906, 502.384 100.565 L 493.269 95.956 488.384 98.062 C 485.698 99.220, 477.200 102.409, 469.500 105.148 C 461.800 107.887, 452.460 111.264, 448.745 112.653 C 445.031 114.042, 441.431 115.278, 440.745 115.400 C 440.060 115.522, 438.600 115.915, 437.500 116.272 C 436.400 116.629, 434.375 117.129, 433 117.382 C 431.625 117.635, 427.492 118.786, 423.816 119.941 C 418.197 121.705, 414.931 122.008, 403.316 121.842 C 395.717 121.734, 388.150 121.231, 386.500 120.726 C 383.259 119.732, 382.977 119.676, 375.500 118.551 C 372.750 118.138, 368.544 117.160, 366.154 116.379 C 363.764 115.598, 360.277 114.715, 358.405 114.418 C 356.533 114.120, 350.753 112.378, 345.560 110.546 C 340.367 108.714, 335.910 107.423, 335.656 107.677 C 334.925 108.409, 327 104.072, 327 102.941 C 327 101.649, 310.999 84.174, 295.854 68.923 C 285.658 58.657, 283.167 56.705, 275.854 53.246 C 265.439 48.320, 262.879 47.256, 256 44.990 C 252.975 43.994, 247.872 42.066, 244.661 40.706 C 235.595 36.867, 233.597 38.599, 236.953 47.389 C 237.560 48.977, 237.836 50.497, 237.568 50.766 C 237.299 51.034, 237.731 52.813, 238.526 54.717 C 239.542 57.147, 239.679 58.731, 238.987 60.025 C 237.489 62.823, 237.807 78.163, 239.497 84.651 C 240.391 88.084, 242.150 91.628, 243.863 93.450 C 247.821 97.658, 248.997 101.869, 249.016 111.899 C 249.035 121.345, 249.966 123.671, 257.139 132.182 C 259.140 134.557, 262.573 139.875, 264.767 144 C 268.174 150.406, 271.765 154.484, 289.389 171.958 C 300.738 183.210, 311.980 193.634, 314.372 195.123 C 316.764 196.612, 319.003 198.566, 319.349 199.466 C 319.694 200.366, 322.119 202.044, 324.738 203.195 C 329.717 205.384, 339.094 213.597, 361.483 235.383 C 368.765 242.468, 375.572 248.717, 376.611 249.269 C 377.650 249.821, 379.400 251.069, 380.500 252.043 C 385.319 256.306, 400.793 264.143, 408.406 266.175 C 412.858 267.364, 417.175 268.850, 418 269.478 C 418.825 270.106, 421.975 271.347, 425 272.236 C 429.413 273.532, 435.735 273.869, 457 273.940 C 481.477 274.022, 483.614 274.170, 484.996 275.872 C 486.442 277.654, 486.607 277.642, 489.996 275.510 C 491.923 274.298, 495.142 273, 497.150 272.626 C 499.157 272.253, 501.325 271.313, 501.969 270.538 C 502.612 269.763, 504.570 268.820, 506.319 268.443 C 510.002 267.649, 516.658 263.989, 522.769 259.398 C 525.117 257.634, 529.256 255.658, 531.967 255.008 C 537.545 253.670, 539.752 251.325, 545.163 240.985 C 547.672 236.190, 550.422 232.982, 556.247 228.054 C 560.508 224.449, 563.996 221.037, 563.997 220.471 C 563.999 219.905, 566.401 217.182, 569.336 214.419 L 574.672 209.396 575.335 198.551 C 575.700 192.587, 576.399 187.210, 576.888 186.603 C 577.377 185.996, 578.103 182.636, 578.500 179.135 C 579.299 172.097, 582.002 167.256, 588.822 160.645 C 591.422 158.125, 593.245 155.182, 594.087 152.145 C 594.796 149.590, 596.642 145.343, 598.188 142.706 C 599.735 140.069, 601 137.570, 601 137.152 C 601 136.734, 602.575 134.866, 604.500 133 C 607.003 130.574, 608 128.733, 608 126.539 C 608 122.746, 610.977 116.970, 616.101 110.821 C 618.245 108.247, 620 105.165, 620 103.972 C 620 102.779, 620.718 100.289, 621.596 98.439 C 622.474 96.589, 622.980 94.496, 622.721 93.788 C 622.462 93.080, 623.092 91.100, 624.121 89.389 C 625.150 87.677, 626.244 83.852, 626.552 80.889 C 626.859 77.925, 627.369 74.625, 627.685 73.556 C 628 72.486, 628.411 69.111, 628.597 66.056 C 628.783 63, 629.229 57.350, 629.589 53.500 C 630.571 42.978, 630.587 36, 629.642 31 C 629.174 28.525, 628.610 24.753, 628.387 22.618 C 627.682 15.849, 626.018 13.680, 619.989 11.673 C 613.407 9.482, 603.817 9.034, 599.789 10.729 M 226.324 51.250 C 225.888 51.938, 224.491 54.525, 223.221 57 C 221.950 59.475, 219.618 63.750, 218.038 66.500 C 207.555 84.750, 203.352 96.488, 202.461 110 C 202.262 113.025, 201.402 117.469, 200.549 119.876 C 199.498 122.844, 199 127.901, 199 135.597 C 199 146.664, 198.135 152.589, 193.755 171.500 C 191.626 180.696, 187.071 192.220, 185.080 193.450 C 184.470 193.827, 183.016 196.018, 181.849 198.318 C 179.968 202.024, 177.867 205.042, 173.735 209.974 C 171.669 212.439, 168.108 228.094, 168.041 235 C 167.960 243.436, 166.266 248.743, 160.612 258.279 C 158.076 262.557, 156 266.224, 156 266.427 C 156 266.630, 154.265 269.654, 152.144 273.148 C 150.023 276.642, 147.947 280.625, 147.530 282 C 146.067 286.824, 142.557 291.402, 133.569 300.208 C 128.365 305.306, 123.364 309.332, 121.833 309.654 C 120.367 309.964, 118.014 311.420, 116.606 312.890 L 114.045 315.563 120.816 315.180 C 126.265 314.872, 127.860 315.127, 128.986 316.483 C 131.251 319.213, 129.049 321.450, 123.751 321.801 C 120.238 322.033, 119.091 322.542, 118.698 324.046 C 117.883 327.165, 114.956 327.664, 112.835 325.045 C 111.098 322.900, 110.417 322.783, 101.983 323.186 C 96.924 323.428, 92.461 324.139, 91.792 324.808 C 91.136 325.464, 89.790 326, 88.800 326 C 87.810 326, 87 326.365, 87 326.811 C 87 327.257, 84.638 328.188, 81.750 328.881 C 78.862 329.573, 75.600 330.485, 74.500 330.908 C 73.400 331.330, 69.350 332.688, 65.500 333.924 C 61.527 335.200, 57.203 337.400, 55.500 339.012 C 53.850 340.574, 49.399 343.460, 45.608 345.426 L 38.716 349 19.858 349 L 1 349 1 391 L 1 433 323.500 433 L 646 433 646 384.648 L 646 336.295 637.444 335.637 C 632.737 335.276, 627.283 334.309, 625.321 333.490 C 623.360 332.670, 620.251 332, 618.412 332 C 616.573 332, 613.590 331.379, 611.784 330.620 C 609.978 329.861, 606.700 328.708, 604.500 328.059 C 602.300 327.409, 598.925 326.275, 597 325.539 C 591.110 323.286, 569.113 322.002, 534.072 321.866 L 500.644 321.735 498.277 319.368 C 496.338 317.429, 494.872 317, 490.187 317 C 482.646 317, 478.245 314.094, 475.580 307.355 C 474.525 304.685, 472.837 301.427, 471.830 300.115 C 470.390 298.239, 470 295.935, 470 289.311 L 470 280.891 448.750 281.033 C 429.215 281.163, 427.016 280.999, 421.500 278.995 C 418.200 277.797, 415.050 276.458, 414.500 276.020 C 413.950 275.582, 410.075 274.292, 405.889 273.153 C 398.970 271.271, 389.594 266.603, 376.459 258.500 C 373.784 256.850, 365.949 249.864, 359.048 242.976 C 352.146 236.088, 344.258 228.663, 341.518 226.476 C 338.778 224.289, 334.009 219.912, 330.921 216.750 C 327.832 213.588, 324.629 211, 323.803 211 C 322.334 211, 314.485 205.885, 312.500 203.634 C 311.950 203.010, 309.925 201.312, 308 199.861 C 306.075 198.409, 294.825 187.599, 283 175.837 C 263.979 156.918, 261.050 153.571, 257.596 146.807 C 255.449 142.602, 251.934 137.213, 249.785 134.831 C 243.339 127.687, 242 124.221, 242 114.689 C 242 106.346, 240.766 100.425, 238.622 98.484 C 233.002 93.393, 231.997 89.797, 230.947 71 C 230.501 63.025, 229.918 55.375, 229.651 54 C 229.385 52.625, 229.129 51.163, 229.083 50.750 C 228.951 49.560, 227.195 49.879, 226.324 51.250 M 588.500 50.707 C 587.400 50.968, 583.350 52.222, 579.500 53.493 C 575.650 54.764, 568.980 56.040, 564.679 56.330 C 550.976 57.252, 543 63.235, 543 72.589 C 543 74.950, 543.479 77.178, 544.065 77.540 C 544.760 77.969, 544.513 78.880, 543.357 80.158 C 542.016 81.640, 541.841 82.524, 542.637 83.787 C 544.079 86.072, 548.358 86.926, 563.063 87.865 C 571.288 88.389, 576.640 89.214, 578.563 90.252 C 584.274 93.337, 590.216 95.044, 597.338 95.646 C 603.276 96.148, 604.781 95.969, 605.892 94.630 C 606.695 93.663, 607.575 88.656, 608.069 82.253 C 609.408 64.887, 609.309 63.520, 606.459 60.133 L 603.917 57.113 608.606 56.806 C 613.965 56.456, 616.278 54.245, 614.070 51.584 C 613.003 50.298, 610.660 50.022, 601.628 50.116 C 595.507 50.180, 589.600 50.446, 588.500 50.707 M 560 64.202 C 553.048 65.728, 548.905 70.274, 551.167 73.896 C 552.120 75.422, 552.115 76.157, 551.141 77.330 C 549.177 79.697, 551.165 80.247, 564.067 80.902 C 572.751 81.343, 575.587 81.204, 574.894 80.371 C 574.378 79.750, 573.674 75.588, 573.330 71.121 L 572.704 63 568.602 63.107 C 566.346 63.166, 562.475 63.659, 560 64.202 M 600.175 78.095 C 599.889 82.344, 597.222 83.865, 589.477 84.199 L 582.500 84.500 588 86.188 C 598.398 89.380, 599.850 89.444, 600.529 86.741 C 600.860 85.420, 600.956 82.351, 600.741 79.920 C 600.525 77.489, 600.271 76.668, 600.175 78.095 M 533.667 98.667 C 532.579 99.755, 532.902 102.646, 534.449 105.669 C 535.246 107.226, 536.120 109.258, 536.392 110.185 C 536.664 111.111, 537.802 112.359, 538.921 112.958 C 540.566 113.838, 541.350 113.650, 543.028 111.972 C 544.325 110.675, 544.880 109.197, 544.509 108.029 C 544.183 107.001, 543.724 105.162, 543.489 103.943 C 542.845 100.600, 540.012 98, 537.012 98 C 535.539 98, 534.033 98.300, 533.667 98.667 M 467.969 113.430 C 456.561 116.580, 454.205 120.037, 458.190 127.780 C 461.098 133.431, 465.895 136.662, 468.949 135.027 C 471.727 133.540, 471.532 130.222, 468.500 127.412 C 467.125 126.138, 466 124.654, 466 124.115 C 466 123.191, 468.730 121.930, 471.941 121.372 C 478.470 120.236, 480.951 117.645, 479 114 C 477.768 111.698, 474.796 111.545, 467.969 113.430 M 305.500 114 C 305.160 114.550, 302.939 115, 300.563 115 C 295.902 115, 293.359 116.888, 294.393 119.582 C 294.732 120.466, 295.908 121.425, 297.005 121.712 C 299.504 122.365, 299.481 122.617, 296.474 127.500 C 292.879 133.336, 293.099 138.945, 297.077 142.923 C 298.769 144.615, 300.560 146, 301.057 146 C 301.553 146, 304.422 148.583, 307.432 151.740 L 312.904 157.481 320.702 157.826 C 324.991 158.016, 340.359 157.710, 354.854 157.147 C 385.316 155.962, 385.408 155.934, 384.831 147.968 C 384.546 144.033, 384.762 143.399, 386.369 143.446 C 387.397 143.476, 388.728 142.739, 389.327 141.809 C 391.182 138.927, 388.483 136.803, 375.500 130.931 C 372.750 129.687, 369.306 127.844, 367.846 126.835 C 366.386 125.826, 364.303 125, 363.218 125 C 362.133 125, 360.685 124.325, 360 123.500 C 359.315 122.675, 358.313 122, 357.773 122 C 357.232 122, 354.700 120.538, 352.145 118.751 L 347.500 115.503 329 115.179 C 318.825 115.002, 310.072 114.439, 309.550 113.928 C 308.302 112.709, 306.276 112.745, 305.500 114 M 193.320 122 C 193.320 125.575, 193.502 127.037, 193.723 125.250 C 193.945 123.463, 193.945 120.537, 193.723 118.750 C 193.502 116.963, 193.320 118.425, 193.320 122 M 306.234 125.750 C 305.280 127.813, 303.967 130.065, 303.316 130.756 C 300.382 133.867, 300.624 136.343, 304.116 138.927 C 305.977 140.305, 309.434 143.446, 311.797 145.906 C 315.825 150.099, 316.484 150.406, 322.297 150.804 L 328.500 151.229 325.600 148.153 C 322.787 145.169, 322.719 144.856, 323.327 137.666 C 324.087 128.670, 325.381 124.975, 328.012 124.287 C 332.976 122.989, 329.072 122, 318.984 122 L 307.968 122 306.234 125.750 M 558.821 126.263 C 555.076 129.843, 546.627 133, 540.792 133 C 539.515 133, 536.844 133.872, 534.856 134.937 C 529.816 137.639, 519.855 140.125, 518.518 139.015 C 517.852 138.463, 511.474 139.616, 501.976 142.006 C 488.743 145.336, 485.437 145.825, 479.009 145.403 C 474.879 145.133, 465.577 144.843, 458.339 144.759 C 445.179 144.608, 442 145.317, 442 148.403 C 442 149.040, 440.651 150.071, 439.002 150.693 C 435.348 152.072, 434.586 153.781, 435.985 157.460 C 437.012 160.161, 437.122 160.199, 438.988 158.511 C 441.223 156.488, 443.963 157.143, 444.677 159.871 C 445.172 161.764, 450.742 164, 454.965 164 C 456.193 164, 458.391 165.263, 459.849 166.807 C 461.307 168.352, 464.652 170.648, 467.281 171.912 C 471.703 174.036, 472.944 174.165, 483.781 173.623 C 508.928 172.367, 527.410 168.670, 537.005 162.976 C 540.027 161.182, 544.525 158.754, 547 157.579 C 555.822 153.393, 568.705 145.983, 570.382 144.131 C 571.319 143.095, 572.332 140.730, 572.633 138.874 C 573.287 134.843, 570.795 131.158, 564.895 127.434 C 560.404 124.599, 560.536 124.624, 558.821 126.263 M 368 140.047 C 368 142.169, 367.477 145.054, 366.838 146.457 C 366.198 147.860, 365.910 149.243, 366.196 149.530 C 366.483 149.816, 369.256 149.752, 372.359 149.388 C 377.337 148.803, 378 148.462, 378 146.485 C 378 145.253, 378.670 143.689, 379.489 143.009 C 381.441 141.389, 380.496 140, 377.441 140 C 376.098 140, 375 139.626, 375 139.168 C 375 138.710, 373.425 137.852, 371.500 137.261 L 368 136.187 368 140.047 M 192.252 140.500 C 192.263 142.700, 192.468 143.482, 192.707 142.238 C 192.946 140.994, 192.937 139.194, 192.687 138.238 C 192.437 137.282, 192.241 138.300, 192.252 140.500 M 423.708 139.435 C 422.921 140.222, 421.970 142.788, 421.594 145.137 C 421.219 147.486, 420.026 150.840, 418.944 152.591 C 416.246 156.955, 418.254 160.991, 422.342 159.422 C 424.731 158.506, 428.134 151.104, 428.703 145.586 C 429.191 140.865, 429.007 140.074, 427.199 139.106 C 425.611 138.257, 424.811 138.332, 423.708 139.435 M 246.566 153.894 C 246.224 154.447, 246.923 157.734, 248.118 161.199 C 250.816 169.017, 251.439 179.527, 250.215 196.542 C 249.274 209.613, 248.650 211.788, 244.250 217.323 C 240.071 222.580, 242.373 226.073, 246.910 221.358 C 251.926 216.146, 253.136 212.340, 254.179 198.500 C 255.479 181.265, 254.693 166.053, 252.138 159 C 250.252 153.793, 247.938 151.672, 246.566 153.894 M 339.091 204.830 C 337.983 206.901, 339.679 210.928, 343.316 214.861 C 348.315 220.266, 374.834 237.617, 381 239.517 C 382.375 239.941, 391.290 244.097, 400.810 248.753 C 424.029 260.108, 432.467 262.122, 463.249 263.660 C 475.626 264.278, 478 263.679, 478 259.937 C 478 257.012, 476.221 256.538, 462.500 255.807 C 440.501 254.634, 429.095 253.015, 420.500 249.846 C 417.695 248.812, 397.327 239.112, 378.078 229.643 C 367.277 224.329, 350.733 212.391, 346.845 207.105 C 343.615 202.712, 340.684 201.853, 339.091 204.830 M 244.203 269.457 C 241.840 270.205, 238.397 271.533, 236.552 272.408 C 234.707 273.284, 232.396 274, 231.415 274 C 228.210 274, 216.800 286.980, 212.824 295.150 C 210.802 299.304, 206.641 305.583, 203.578 309.102 C 198.319 315.142, 197.720 315.528, 192.855 316 C 187.046 316.564, 184.690 318.717, 186.930 321.416 C 187.875 322.554, 190.016 323, 194.538 323 C 200.359 323, 201.055 322.756, 203.815 319.750 C 205.456 317.962, 208.606 314.555, 210.815 312.177 C 213.024 309.799, 216.107 305.299, 217.666 302.177 C 219.225 299.055, 220.777 296.275, 221.115 296 C 221.454 295.725, 222.038 294.515, 222.414 293.310 C 223.217 290.734, 232.634 281.003, 234.332 280.994 C 234.974 280.990, 236.715 280.354, 238.199 279.580 C 239.683 278.805, 243.337 277.463, 246.318 276.596 C 252.617 274.765, 254.907 272.667, 253.340 270.166 C 251.973 267.985, 249.467 267.791, 244.203 269.457 M 405.357 290.513 C 405.037 291.345, 405.215 292.582, 405.751 293.263 C 406.286 293.943, 407.540 297.200, 408.536 300.500 C 410.877 308.255, 418.316 316.207, 424.877 317.970 C 427.881 318.777, 429.578 318.822, 430.285 318.115 C 431.793 316.607, 429.580 314.366, 425.844 313.619 C 420.910 312.632, 414.679 305.547, 412.547 298.500 C 410.086 290.363, 406.810 286.725, 405.357 290.513 M 308 351.808 C 306.016 353.435, 305.754 354.116, 306.730 355.109 C 307.714 356.110, 308.454 356.095, 310.431 355.037 C 312.198 354.091, 314.820 353.910, 319.624 354.402 C 326.293 355.086, 330.187 356.652, 334.782 360.500 C 336.095 361.600, 337.694 362.543, 338.335 362.597 C 342.679 362.957, 347 366.525, 347 369.751 C 347 371.093, 347.939 373.510, 349.087 375.122 L 351.174 378.052 365.749 377.776 L 380.324 377.500 381.412 374.500 C 383.095 369.861, 387.717 363.232, 390.575 361.359 C 392.458 360.125, 396.318 359.509, 404.828 359.084 C 414.277 358.611, 416.500 358.214, 416.500 357 C 416.500 355.746, 414.438 355.501, 403.914 355.506 C 391.743 355.512, 391.209 355.603, 387.739 358.250 C 384.042 361.070, 378.702 368.212, 377.530 371.906 C 376.906 373.872, 376.160 374, 365.293 374 C 352.660 374, 351.099 373.336, 351.032 367.937 C 350.989 364.495, 345.972 359.726, 342.858 360.166 C 341.255 360.393, 339.754 359.623, 338.171 357.762 C 334.584 353.545, 327.585 350.885, 318.500 350.286 C 311.453 349.822, 310.202 350.003, 308 351.808" stroke="none" fill="#fafafb" fill-rule="evenodd"/>
<script type="text/javascript">
    alert("XSS");
  </script>
  </svg>